<svg width="40" height="40" viewBox="0 0 40 40" fill="none" xmlns="http://www.w3.org/2000/svg">
<path d="M20 40C31.0457 40 40 31.0457 40 20C40 8.95431 31.0457 0 20 0C8.95431 0 0 8.95431 0 20C0 31.0457 8.95431 40 20 40Z" fill="#FCD82B"/>
<path d="M10.9984 20.1835C10.2376 20.1835 9.62109 19.5668 9.62109 18.8062V16.0473C9.62109 15.2866 10.2376 14.6699 10.9984 14.6699C11.7593 14.6699 12.3758 15.2866 12.3758 16.0473V18.8062C12.3758 19.5668 11.7593 20.1835 10.9984 20.1835Z" fill="#444444"/>
<path d="M28.9379 20.1835C28.177 20.1835 27.5605 19.5668 27.5605 18.8062V16.0473C27.5605 15.2866 28.177 14.6699 28.9379 14.6699C29.6987 14.6699 30.3152 15.2866 30.3152 16.0473V18.8062C30.3152 19.5668 29.6985 20.1835 28.9379 20.1835Z" fill="#444444"/>
<path d="M28.9387 27.3133H10.9984C10.2376 27.3133 9.62109 26.6966 9.62109 25.9359C9.62109 25.1753 10.2376 24.5586 10.9984 24.5586H28.9387C29.6995 24.5586 30.316 25.1753 30.316 25.9359C30.316 26.6966 29.6993 27.3133 28.9387 27.3133Z" fill="#444444"/>
<path d="M39.9997 20C39.9997 31.0461 31.046 39.9998 19.9999 39.9998C13.4442 39.9998 7.62466 36.8465 3.97656 31.9731C7.43386 34.8242 11.8654 36.5368 16.6954 36.5368C27.7415 36.5368 36.6952 27.5831 36.6952 16.537C36.6952 12.0488 35.2167 7.9061 32.7225 4.56763C37.1674 8.23446 39.9997 13.7859 39.9997 20Z" fill="#FDCB5E"/>
</svg>
