<svg width="40" height="40" viewBox="0 0 40 40" fill="none" xmlns="http://www.w3.org/2000/svg">
<path d="M20 39.9998C31.0457 39.9998 40 31.0455 40 19.9999C40 8.95426 31.0457 0 20 0C8.95431 0 0 8.95426 0 19.9999C0 31.0455 8.95431 39.9998 20 39.9998Z" fill="#F37873"/>
<path d="M39.9997 20.0002C39.9997 31.0462 31.046 39.9999 19.9999 39.9999C13.4442 39.9999 7.62466 36.8466 3.97656 31.9732C7.43386 34.8245 11.8656 36.5369 16.6956 36.5369C27.7416 36.5369 36.6954 27.5832 36.6954 16.5372C36.6954 12.049 35.2169 7.90633 32.7226 4.56787C37.1674 8.23487 39.9997 13.7861 39.9997 20.0002Z" fill="#E76663"/>
<path d="M11.0297 20.183C10.2688 20.183 9.65234 19.5663 9.65234 18.8056V16.0468C9.65234 15.2861 10.2688 14.6694 11.0297 14.6694C11.7905 14.6694 12.407 15.2861 12.407 16.0468V18.8056C12.407 19.5663 11.7905 20.183 11.0297 20.183Z" fill="#444444"/>
<path d="M28.9711 20.183C28.2102 20.183 27.5938 19.5663 27.5938 18.8056V16.0468C27.5938 15.2861 28.2102 14.6694 28.9711 14.6694C29.7319 14.6694 30.3484 15.2861 30.3484 16.0468V18.8056C30.3484 19.5663 29.7319 20.183 28.9711 20.183Z" fill="#444444"/>
<path d="M12.7258 30.1442C12.4624 30.1442 12.1965 30.069 11.9614 29.9116C11.3291 29.4888 11.1593 28.6334 11.5822 28.0011C13.4569 25.1978 16.5867 23.4918 19.9547 23.4374C23.3619 23.3821 26.5652 25.0162 28.5256 27.8072C28.9629 28.4297 28.8127 29.2887 28.1901 29.7259C27.5677 30.1632 26.7087 30.0128 26.2714 29.3904C24.8366 27.3474 22.4995 26.1522 19.9992 26.1917C17.5349 26.2314 15.2444 27.4803 13.8723 29.5322C13.6062 29.9296 13.17 30.1442 12.7258 30.1442Z" fill="#444444"/>
</svg>
