<svg width="41" height="40" viewBox="0 0 41 40" fill="none" xmlns="http://www.w3.org/2000/svg">
<path d="M19.9998 39.9995C31.0453 39.9995 39.9996 31.0453 39.9996 19.9998C39.9996 8.9542 31.0453 0 19.9998 0C8.95421 0 0 8.9542 0 19.9998C0 31.0453 8.95421 39.9995 19.9998 39.9995Z" fill="#65D9A5"/>
<path d="M40.0011 20.0003C40.0011 31.0462 31.0474 39.9999 20.0015 39.9999C13.4458 39.9999 7.62639 36.8466 3.97852 31.9733C7.43577 34.8245 11.8672 36.537 16.6972 36.537C27.7431 36.537 36.6968 27.5833 36.6968 16.5374C36.6968 12.0492 35.2183 7.90655 32.7241 4.56812C37.169 8.23509 40.0011 13.7862 40.0011 20.0003Z" fill="#48C392"/>
<path d="M11.0297 20.1824C10.2688 20.1824 9.65234 19.5658 9.65234 18.8051V16.0463C9.65234 15.2856 10.2688 14.6689 11.0297 14.6689C11.7905 14.6689 12.407 15.2856 12.407 16.0463V18.8051C12.407 19.5658 11.7903 20.1824 11.0297 20.1824Z" fill="#444444"/>
<path d="M28.9691 20.1824C28.2083 20.1824 27.5918 19.5658 27.5918 18.8051V16.0463C27.5918 15.2856 28.2083 14.6689 28.9691 14.6689C29.7299 14.6689 30.3464 15.2856 30.3464 16.0463V18.8051C30.3464 19.5658 29.7299 20.1824 28.9691 20.1824Z" fill="#444444"/>
<path d="M19.9419 31.1743C16.5977 31.1743 13.4663 29.5489 11.5375 26.8032C11.1002 26.1807 11.2504 25.3218 11.873 24.8845C12.4955 24.4473 13.3548 24.5977 13.7917 25.2199C15.2265 27.2629 17.5689 28.4529 20.0636 28.4186C22.5279 28.3789 24.8185 27.1301 26.1907 25.0781C26.6138 24.4456 27.4694 24.2761 28.1011 24.6989C28.7334 25.1218 28.9033 25.977 28.4803 26.6093C26.6057 29.4126 23.4757 31.1187 20.1079 31.1728C20.0528 31.1739 19.9972 31.1743 19.9419 31.1743Z" fill="#444444"/>
</svg>
